<?xml version="1.0" encoding="UTF-8"?><svg id="a" xmlns="http://www.w3.org/2000/svg" viewBox="0 0 566.93 566.93"><defs><style>.b{fill:#fff;}.c{fill:#58595b;}</style></defs><g><path class="b" d="M206.18,310.84c.26-.02,.51-.04,.76-.08,.21-.04,.43-.06,.67-.08,.24-.02,.44-.03,.61-.03,.35,0,.72,.03,1.1,.09,.38,.06,.73,.18,1.04,.37,.32,.18,.58,.45,.79,.8s.31,.8,.31,1.36v10.88h3.82c.59,0,1.08,.07,1.45,.22,.37,.15,.66,.34,.86,.59,.2,.24,.34,.51,.41,.81,.07,.3,.1,.58,.1,.86,0,.14,0,.31-.01,.51s-.02,.39-.04,.56c-.02,.21-.03,.42-.03,.63h-11.85v-17.5Z"/><path class="b" d="M235.63,321.9c0,.89-.12,1.75-.37,2.58-.24,.83-.63,1.56-1.16,2.18-.53,.63-1.22,1.13-2.07,1.5s-1.88,.56-3.1,.56-2.22-.18-3.06-.55-1.52-.86-2.05-1.48-.92-1.33-1.16-2.14c-.24-.81-.37-1.67-.37-2.58s.14-1.77,.42-2.58c.28-.81,.7-1.51,1.27-2.1,.57-.59,1.27-1.06,2.11-1.41,.84-.35,1.82-.52,2.95-.52,1.2,0,2.22,.17,3.06,.52s1.52,.82,2.04,1.41c.52,.59,.9,1.29,1.14,2.08,.23,.79,.35,1.64,.35,2.52Zm-5.2,.08c0-.77-.1-1.42-.31-1.95-.21-.53-.58-.8-1.11-.8-.29,0-.54,.08-.73,.24-.19,.16-.35,.37-.47,.63-.12,.26-.2,.56-.25,.89-.04,.33-.06,.67-.06,1.02,0,.38,.02,.75,.06,1.1,.04,.35,.13,.66,.25,.93,.12,.27,.27,.48,.45,.64s.42,.23,.71,.23,.54-.08,.73-.25c.19-.17,.34-.38,.44-.65,.1-.27,.18-.58,.22-.93,.04-.35,.07-.71,.07-1.1Z"/><path class="b" d="M249.04,328.5h-5.07l-4.29-12.34c.44-.14,.91-.26,1.41-.37,.51-.11,.99-.16,1.46-.16,.51,0,.93,.07,1.28,.21,.35,.14,.63,.33,.85,.56,.22,.24,.39,.51,.51,.82s.22,.65,.29,1.02l.99,5.73h.1l1.07-5.75c.12-.71,.4-1.32,.82-1.83,.43-.51,1.09-.76,2-.76,.54,0,1.06,.05,1.57,.16,.51,.1,.92,.23,1.23,.37l-4.24,12.34Z"/><path class="b" d="M265.23,325.07c.7,0,1.28-.1,1.75-.31,.47-.21,.94-.49,1.41-.84,.23,.35,.45,.75,.68,1.2,.23,.45,.34,.85,.34,1.2,0,.3-.08,.58-.24,.84-.16,.26-.44,.51-.84,.76-.38,.23-.9,.42-1.55,.58s-1.47,.24-2.45,.24c-.72,0-1.48-.09-2.3-.26s-1.58-.51-2.27-1.02c-.7-.51-1.28-1.21-1.74-2.13s-.69-2.11-.69-3.6c0-1.1,.19-2.05,.56-2.85,.37-.8,.86-1.46,1.46-1.99s1.29-.91,2.07-1.15c.78-.24,1.55-.37,2.34-.37,1.06,0,1.97,.16,2.72,.47,.75,.31,1.35,.73,1.82,1.25,.46,.52,.8,1.13,1.01,1.83,.21,.7,.31,1.43,.31,2.2v.35c0,.15,0,.3-.01,.46s-.02,.3-.03,.45c0,.14-.02,.24-.04,.31h-6.98c.09,.66,.33,1.23,.73,1.69,.4,.46,1.04,.69,1.93,.69Zm-.24-4.55c0-.72-.1-1.21-.3-1.48-.2-.27-.53-.4-.98-.4-.82,0-1.23,.63-1.23,1.88h2.51Z"/><path class="b" d="M288.03,315.05h-5.02c-.04-.35-.06-.65-.08-.9-.02-.25-.03-.53-.03-.83,0-.28,.05-.57,.16-.87,.1-.3,.27-.58,.51-.82,.23-.24,.54-.45,.91-.6s.84-.23,1.4-.23h12.34c.04,.35,.06,.67,.08,.95s.03,.58,.03,.88-.04,.59-.13,.87c-.09,.29-.24,.55-.46,.77s-.51,.41-.87,.56c-.37,.15-.83,.22-1.39,.22h-2.17v13.29h-5.28v-13.29Z"/><path class="b" d="M310.45,320.65c0-.38-.04-.69-.13-.92-.09-.23-.32-.34-.71-.34s-.66,.08-.82,.25-.25,.34-.25,.54v8.16h-5.26v-18.36c.21-.02,.43-.04,.65-.08,.19-.04,.4-.06,.64-.08,.24-.02,.47-.02,.69-.02,.42,0,.82,.04,1.2,.12,.38,.08,.73,.21,1.03,.4,.3,.19,.55,.47,.73,.82,.18,.36,.28,.81,.28,1.35v4.45c.1-.17,.25-.35,.43-.54s.41-.35,.69-.51c.28-.16,.6-.28,.95-.38,.36-.1,.77-.14,1.24-.14,1.01,0,1.83,.26,2.44,.79s1.02,1.21,1.22,2.06c.05,.19,.09,.41,.12,.67,.03,.25,.04,.51,.05,.76s.02,.5,.03,.74c0,.24,.01,.45,.01,.63v7.22c-.17,.07-.36,.13-.55,.18-.17,.03-.38,.07-.61,.1-.24,.04-.49,.05-.77,.05-.8,0-1.42-.1-1.87-.29-.44-.19-.78-.44-.99-.76s-.35-.68-.39-1.09c-.04-.41-.07-.84-.07-1.29v-4.5Z"/><path class="b" d="M330.61,328.68c-.09,.35-.23,.78-.43,1.29-.2,.51-.4,.94-.59,1.27-.61,1.1-1.36,1.88-2.25,2.34-.89,.46-1.96,.69-3.22,.69-.45,0-.87-.03-1.24-.09s-.7-.17-.98-.31-.5-.35-.65-.6c-.16-.25-.24-.57-.24-.96,0-.3,.07-.65,.21-1.06,.14-.41,.38-.9,.71-1.48,.3,.19,.61,.33,.94,.41s.62,.12,.86,.12c.63,0,1.12-.16,1.46-.47s.6-.88,.76-1.7h-2.07l-3.87-12.06c.38-.14,.82-.25,1.32-.33,.5-.08,.97-.12,1.43-.12,.52,0,.97,.07,1.33,.22,.37,.15,.67,.34,.9,.59,.23,.24,.42,.52,.56,.84s.24,.64,.31,.99l1.15,5.75h.11l1.15-5.78c.14-.7,.44-1.31,.92-1.83,.47-.52,1.17-.78,2.09-.78s1.79,.17,2.64,.5l-3.32,12.55Z"/><path class="b" d="M348.18,323.24c.66,.45,1.36,.84,2.09,1.15,.73,.31,1.51,.47,2.33,.47,1.19,0,1.78-.48,1.78-1.44,0-.26-.07-.49-.21-.69-.14-.2-.33-.38-.56-.53-.24-.16-.51-.3-.84-.42-.32-.12-.67-.24-1.03-.37-.54-.17-1.1-.39-1.67-.64-.58-.25-1.1-.58-1.57-.98s-.85-.91-1.15-1.53-.44-1.39-.44-2.31,.19-1.76,.56-2.45c.38-.69,.87-1.26,1.49-1.71,.62-.45,1.34-.79,2.15-1.01s1.65-.33,2.52-.33c1.2,0,2.23,.13,3.07,.4,.85,.27,1.44,.52,1.79,.75,.35,.23,.61,.46,.8,.71,.18,.24,.27,.54,.27,.89s-.1,.72-.3,1.11c-.2,.39-.53,.89-.98,1.5-.31-.23-.65-.43-1.01-.6s-.72-.32-1.09-.43c-.36-.11-.72-.2-1.04-.26-.33-.06-.62-.09-.86-.09-.58,0-1.02,.1-1.33,.29s-.47,.46-.47,.81c0,.37,.18,.66,.53,.88,.36,.22,.85,.43,1.48,.64,.57,.19,1.18,.41,1.8,.65,.63,.24,1.2,.57,1.71,.97,.51,.4,.94,.91,1.27,1.53,.33,.62,.5,1.41,.5,2.37,0,1.05-.17,1.96-.51,2.75s-.82,1.44-1.44,1.96c-.62,.52-1.35,.91-2.2,1.16-.85,.25-1.77,.38-2.79,.38-1.25,0-2.31-.12-3.16-.35-.85-.23-1.52-.5-1.99-.8-.31-.19-.55-.43-.71-.71-.16-.28-.23-.57-.23-.89,0-.42,.15-.88,.44-1.39s.63-.98,.99-1.44Z"/><path class="b" d="M372.63,325.07c.7,0,1.28-.1,1.75-.31,.47-.21,.94-.49,1.41-.84,.23,.35,.45,.75,.68,1.2,.23,.45,.34,.85,.34,1.2,0,.3-.08,.58-.24,.84-.16,.26-.44,.51-.84,.76-.38,.23-.9,.42-1.55,.58s-1.47,.24-2.45,.24c-.72,0-1.48-.09-2.3-.26s-1.58-.51-2.27-1.02c-.7-.51-1.28-1.21-1.74-2.13s-.69-2.11-.69-3.6c0-1.1,.19-2.05,.56-2.85,.37-.8,.86-1.46,1.46-1.99s1.29-.91,2.07-1.15c.78-.24,1.55-.37,2.34-.37,1.06,0,1.97,.16,2.72,.47,.75,.31,1.35,.73,1.82,1.25,.46,.52,.8,1.13,1.01,1.83,.21,.7,.31,1.43,.31,2.2v.35c0,.15,0,.3-.01,.46s-.02,.3-.03,.45c0,.14-.02,.24-.04,.31h-6.98c.09,.66,.33,1.23,.73,1.69,.4,.46,1.04,.69,1.93,.69Zm-.24-4.55c0-.72-.1-1.21-.3-1.48-.2-.27-.53-.4-.98-.4-.82,0-1.23,.63-1.23,1.88h2.51Z"/><path class="b" d="M382.26,309.98c.21-.02,.43-.04,.65-.08,.19-.04,.4-.06,.64-.08,.23-.02,.46-.02,.69-.02,.42,0,.82,.04,1.21,.12,.39,.08,.73,.22,1.03,.42,.29,.2,.53,.48,.72,.84,.18,.36,.27,.82,.27,1.37v15.69c-.71,.23-1.35,.34-1.9,.34-.8,0-1.42-.1-1.86-.29-.44-.19-.77-.44-.99-.76s-.35-.68-.39-1.09c-.04-.41-.06-.84-.06-1.29v-15.17Z"/><path class="b" d="M402.58,314.35c-.28-.16-.64-.32-1.07-.48-.44-.17-.92-.25-1.44-.25-.45,0-.84,.12-1.15,.35-.31,.23-.47,.61-.47,1.11v.63h3.87v3.9h-3.87v8.73h-5.2v-12.5c0-.23,0-.54,.01-.94,0-.4,.03-.72,.06-.97,.23-1.41,.82-2.49,1.79-3.23,.97-.74,2.31-1.11,4.04-1.11,.35,0,.72,.02,1.11,.06,.39,.04,.77,.11,1.14,.2,.63,.16,1.17,.39,1.62,.71,.45,.31,.68,.77,.68,1.36,0,.26-.1,.61-.31,1.06-.21,.44-.48,.9-.81,1.37Z"/></g><g><path class="c" d="M216.27,288.72c3.13,0,6.37-1.36,6.37-5.11,0-3.98-3.58-5.11-7.45-6.48-4.83-1.65-10.34-3.47-10.34-11.03s6.25-11.14,13.53-11.14c5,0,8.75,1.71,9.89,2.56,1.08,.63,1.59,1.48,1.59,2.56,0,.91-.85,2.61-2.27,4.15-1.88-1.53-5.12-3.18-8.47-3.18-2.73,0-6.08,.91-6.08,4.32s3.3,4.43,6.99,5.8c4.83,1.82,10.57,3.75,10.57,11.2,0,8.01-5.85,12.39-14.27,12.39-5.4,0-8.75-1.42-10.29-2.33-.91-.63-1.59-1.42-1.59-2.5,0-1.31,1.25-3.3,2.44-4.89,2.1,1.65,5.12,3.69,9.38,3.69Z"/><path class="c" d="M255.37,282.92c-.62-.74-1.08-1.71-1.25-2.84v13.7h-7.73v-40.07c0-.06,1.42-.23,2.61-.23,2.44,0,5.11,.74,5.11,4.55v20.35c.23-1.02,.74-1.99,1.48-2.84l6.02-6.88c1.31-1.53,2.5-2.39,4.38-2.39,1.99,0,3.47,.8,4.89,1.93l-9.27,10.68,10.63,14.1c-1.08,.74-2.73,1.36-4.49,1.36-2.73,0-4.32-.74-6.08-2.96l-6.31-8.47Z"/><path class="c" d="M289.93,261.89c-2.33,0-4.15-1.65-4.15-4.09s1.82-4.15,4.15-4.15,4.15,1.71,4.15,4.15-1.88,4.09-4.15,4.09Zm4.09,32.22c-.28,.17-1.53,.23-2.73,.23-2.96,0-5-.91-5-4.72v-22.73c0-.06,1.42-.23,2.61-.23,2.44,0,5.11,.68,5.11,4.49v22.96Z"/><path class="c" d="M319.31,293.78h-7.79v-26.88l.68-.11c.46-.06,1.02-.11,1.88-.11,2.44,0,4.38,.74,4.83,2.96,1.31-1.76,3.86-3.52,8.35-3.52,5.4,0,7.73,2.33,8.47,5.8,.4,1.76,.45,3.87,.45,5.85v16.03h-7.73v-15.69c0-3.41-.11-5.8-4.04-5.8-2.78,0-5.11,1.31-5.11,3.07v18.41Z"/><path class="c" d="M358.23,293.78h-3.35v-38.08h.17c.08,0,.15,0,.23-.03,.07-.02,.15-.03,.23-.03,.23,0,.49,.03,.8,.09,.3,.06,.6,.19,.88,.4,.28,.21,.53,.5,.74,.88,.21,.38,.31,.89,.31,1.53v35.24Z"/><path class="c" d="M381.02,270.36c.87-.91,2.13-1.73,3.76-2.47s3.59-1.11,5.87-1.11c1.37,0,2.55,.16,3.53,.48,.99,.32,1.82,.76,2.51,1.31,.68,.55,1.23,1.17,1.62,1.88,.4,.7,.67,1.41,.83,2.13,.19,.8,.31,1.62,.37,2.47,.06,.85,.09,1.71,.09,2.59v16.14h-3.24v-16.18c0-.76-.04-1.52-.11-2.28-.08-.76-.21-1.42-.4-1.99-.73-2.43-2.88-3.65-6.47-3.65-.8,0-1.59,.09-2.38,.26-.78,.17-1.52,.4-2.2,.68s-1.32,.62-1.89,1c-.57,.38-1.03,.76-1.37,1.14-.3,.34-.46,.82-.46,1.42v19.6h-3.24v-26.54h.23c.78,0,1.47,.21,2.06,.63,.6,.42,.89,1.25,.89,2.5Z"/><path class="c" d="M437.17,288.6c.23,.19,.5,.46,.82,.82,.32,.36,.48,.71,.48,1.05,0,.42-.34,.93-1.02,1.53-.64,.57-1.62,1.15-2.93,1.73-1.31,.59-2.91,.88-4.8,.88-1.14,0-2.41-.16-3.81-.48-1.4-.32-2.73-.98-3.98-1.99-1.25-1-2.3-2.42-3.16-4.23-.85-1.82-1.28-4.24-1.28-7.27,0-1.89,.21-3.55,.62-4.97,.42-1.42,.97-2.65,1.65-3.69,.68-1.04,1.47-1.89,2.36-2.56,.89-.66,1.79-1.19,2.7-1.59,.91-.4,1.8-.67,2.67-.82,.87-.15,1.65-.23,2.33-.23,1.93,0,3.52,.26,4.77,.78s2.22,1.06,2.9,1.61c.42,.34,.69,.64,.82,.9,.13,.27,.2,.53,.2,.8,0,.3-.1,.63-.28,.99-.19,.36-.4,.73-.63,1.11h-.51c-.76-1.06-1.71-1.9-2.87-2.53-1.16-.63-2.59-.94-4.29-.94-1.59,0-2.95,.3-4.09,.88-1.14,.59-2.06,1.38-2.78,2.36-.72,.99-1.25,2.17-1.59,3.53-.34,1.37-.51,2.81-.51,4.33s.17,3.02,.51,4.39c.34,1.37,.88,2.56,1.62,3.59,.74,1.03,1.68,1.83,2.81,2.42s2.52,.88,4.15,.88c1.21,0,2.25-.17,3.13-.51,.87-.34,1.61-.72,2.22-1.14,.68-.46,1.27-1,1.76-1.65Z"/><path class="c" d="M459.33,291.73c0,.8-.27,1.48-.79,2.05-.53,.57-1.18,.85-1.93,.85s-1.4-.28-1.93-.85c-.53-.57-.8-1.25-.8-2.05s.26-1.48,.8-2.05c.53-.57,1.17-.85,1.93-.85s1.4,.28,1.93,.85c.53,.57,.79,1.25,.79,2.05Z"/></g><path class="b" d="M146.58,332.9c-2.7,4.39-1.34,7.77-1.62,10.91-.2,2.24-.02,4.59-3.21,4.57-2.85-.02-4.09-1.68-4.39-4.41q-1.13-10.28-9.07-15.82c8.94,2.24,16.91,2.63,24.84,.75,22.68-5.37,33.89-29.6,23.03-49.71-7.28-13.49-25.85-17.74-36.92-8.46-4.78,4-6.62,11.01-4.43,16.32,1.29,3.13,3.36,4.98,6.85,4.68,3.4-.28,5.03-2.88,5.52-5.67,.74-4.16,1.55-8.15,6.2-9.29,5-1.23,9.03,.87,12.5,4.56,7.39,7.87,6.89,21.33-.55,30.21-14.9,17.78-42.38,12.57-53.51-7.24-13.38-23.81,2.39-51,28.41-56.68,11.83-2.58,22.8-.46,33.07,5.78,1.12,.68,2.95,1.25,2.05,2.81-1.01,1.74-2.41-.06-3.38-.55-17.97-9.17-38.95-4.53-50.24,7.94-7.79,8.59-10.02,22.21-5.1,33.22,4.81,10.74,14.93,17.38,26.03,17.06,11.55-.33,19.47-8.26,18.81-18.85-.06-.99-.05-2.11-.52-2.92-1.03-1.78-1.15-4.63-3.89-4.71-2.87-.08-3.07,2.74-3.83,4.61-2.18,5.41-5.22,9.59-11.62,10.25-10.87,1.11-16.21-7.72-17.19-15.73-1.81-14.91,10.76-28.42,25.84-28.98,16.09-.6,27.34,6.55,34.04,20.59,6.63,13.89,3.07,31.1-7.86,42.2-3.66,3.72-8.81,5.74-11.19,11.13-.66,1.51-5.02,3.65-6.87,3.44-4.84-.57-4.65,2.57-5.37,5.27-.35,1.33-.44,2.88-2.1,2.98-1.97,.12-2.25-1.46-2.54-3.04-.37-2.02-.98-3.99-1.8-7.22Z"/></svg>